<svg xmlns="http://www.w3.org/2000/svg" viewBox="0 0 100 100">
  <circle cx="50" cy="50" r="46" fill="none" stroke="#00467F" stroke-width="7"/>
  <g transform="rotate(-20,50,50) translate(15,38) scale(0.784)">
    <path fill="#00467F" d="M26.429,0.737h-8.225c-0.192,0-0.351,0.154-0.351,0.346v15.656c0,2.979-1.737,4.826-4.463,4.826c-2.804,0-4.464-1.894-4.464-4.826V1.083c0-0.191-0.159-0.346-0.352-0.346H0.351C0.158,0.737,0,0.892,0,1.083V17.98c0,7.603,5.287,12.515,13.468,12.515c8.087,0,13.313-4.912,13.313-12.515V1.083C26.781,0.892,26.623,0.737,26.429,0.737"/>
    <path fill="#00467F" d="M57.677,0.737h-8.23c-0.191,0-0.349,0.154-0.349,0.347v11.314L31.785,0.134c-0.106-0.072-0.242-0.08-0.357-0.019c-0.114,0.061-0.184,0.179-0.184,0.306v28.966c0,0.192,0.155,0.349,0.348,0.349h8.232c0.192,0,0.347-0.156,0.347-0.349V17.359l17.305,13.178c0.06,0.044,0.129,0.065,0.202,0.065c0.054,0,0.109-0.013,0.159-0.039c0.116-0.06,0.189-0.179,0.189-0.309V1.085C58.025,0.892,57.868,0.737,57.677,0.737"/>
    <path fill="#00467F" d="M75.802,0c-8.087,0-13.313,4.941-13.313,12.59v16.818c0,0.193,0.158,0.349,0.35,0.349h8.225c0.193,0,0.352-0.155,0.352-0.349l0.001-5.575h8.926l-0.001,5.575c0,0.193,0.159,0.349,0.352,0.349h8.224c0.193,0,0.352-0.155,0.352-0.349V12.59C89.27,4.941,83.982,0,75.802,0 M80.342,16.366h-8.927v-3.643c0-2.996,1.738-4.857,4.464-4.857c2.846,0,4.463,1.861,4.463,4.857V16.366z"/>
  </g>
</svg>
